<svg width="351" height="126" viewBox="0 0 351 126" fill="none" xmlns="http://www.w3.org/2000/svg">
<path d="M53.8 125.48C42.3867 125.48 32.7333 122.973 24.84 117.96C16.9467 112.947 10.9733 106.013 6.92 97.16C2.86667 88.3067 0.84 78.12 0.84 66.6C0.84 55.1867 2.86667 45.0533 6.92 36.2C10.9733 27.24 16.9467 20.2533 24.84 15.24C32.7333 10.12 42.3867 7.56 53.8 7.56C65.2133 7.56 74.8133 10.12 82.6 15.24C90.4933 20.2533 96.4667 27.24 100.52 36.2C104.573 45.0533 106.6 55.1867 106.6 66.6C106.6 78.12 104.573 88.3067 100.52 97.16C96.4667 106.013 90.4933 112.947 82.6 117.96C74.8133 122.973 65.2133 125.48 53.8 125.48ZM21 64.04C21 67.3467 21.8 70.4933 23.4 73.48C25 76.36 28.1467 78.7067 32.84 80.52C37.5333 82.2267 44.52 83.08 53.8 83.08C63.08 83.08 70.0133 82.2267 74.6 80.52C79.2933 78.7067 82.44 76.36 84.04 73.48C85.64 70.4933 86.44 67.3467 86.44 64.04C86.44 60.6267 85.64 57.5867 84.04 54.92C82.44 52.1467 79.2933 49.96 74.6 48.36C70.0133 46.6533 63.08 45.8 53.8 45.8C44.52 45.8 37.5333 46.6533 32.84 48.36C28.1467 49.96 25 52.1467 23.4 54.92C21.8 57.5867 21 60.6267 21 64.04ZM129.809 125C125.115 125 121.329 123.613 118.449 120.84C115.675 117.96 114.289 114.44 114.289 110.28V57.32C114.289 52.84 115.622 49.0533 118.289 45.96C120.955 42.8667 124.795 41.32 129.809 41.32C134.715 41.32 138.449 42.8667 141.009 45.96C143.569 49.0533 144.849 52.9467 144.849 57.64V65.64H147.729C147.729 59.56 148.795 54.76 150.929 51.24C153.169 47.72 155.995 45.2133 159.409 43.72C162.822 42.12 166.235 41.32 169.649 41.32C177.862 41.32 183.889 44.3067 187.729 50.28C191.569 56.1467 193.489 64.52 193.489 75.4V110.28C193.489 114.44 192.102 117.96 189.329 120.84C186.555 123.613 182.822 125 178.129 125C173.329 125 169.489 123.613 166.609 120.84C163.835 117.96 162.449 114.44 162.449 110.28V81.96C162.449 78.12 161.702 75.1333 160.209 73C158.822 70.8667 156.742 69.8 153.969 69.8C150.769 69.8 148.422 70.9733 146.929 73.32C145.542 75.6667 144.849 78.6533 144.849 82.28V110.28C144.849 114.44 143.515 117.96 140.849 120.84C138.182 123.613 134.502 125 129.809 125ZM201.149 83.4C201.149 74.9733 202.802 67.56 206.109 61.16C209.522 54.76 214.322 49.7467 220.509 46.12C226.802 42.4933 234.269 40.68 242.909 40.68C249.629 40.68 255.655 41.9067 260.989 44.36C266.429 46.8133 270.695 50.12 273.789 54.28C276.882 58.3333 278.429 62.8133 278.429 67.72C278.429 72.84 276.935 76.4667 273.949 78.6C270.962 80.7333 266.535 81.8 260.669 81.8H227.069C227.069 84.5733 228.135 86.8667 230.269 88.68C232.509 90.4933 236.242 91.4 241.469 91.4C244.135 91.4 246.589 91.1333 248.829 90.6C251.175 90.0667 253.522 89.5867 255.869 89.16C258.322 88.6267 261.042 88.36 264.029 88.36C268.295 88.36 271.815 89.9067 274.589 93C277.362 95.9867 278.749 100.147 278.749 105.48C278.749 111.773 275.495 116.68 268.989 120.2C262.589 123.72 254.162 125.48 243.709 125.48C236.349 125.48 229.415 124.04 222.909 121.16C216.509 118.28 211.282 113.747 207.229 107.56C203.175 101.267 201.149 93.2133 201.149 83.4ZM252.989 76.52C254.589 76.52 255.122 75.7733 254.589 74.28C254.162 72.7867 252.882 71.24 250.749 69.64C248.615 68.04 245.522 67.24 241.469 67.24C236.775 67.24 233.255 68.2533 230.909 70.28C228.669 72.3067 227.549 74.3867 227.549 76.52H252.989ZM312.248 125C307.768 125 304.088 123.613 301.208 120.84C298.434 117.96 297.048 114.387 297.048 110.12V74.44C294.274 75.08 291.768 74.7067 289.528 73.32C287.288 71.9333 285.474 69.8533 284.088 67.08C282.808 64.3067 282.168 61.2667 282.168 57.96C282.168 54.6533 282.861 51.6133 284.248 48.84C285.634 45.96 287.448 43.7733 289.688 42.28C292.034 40.7867 294.594 40.4667 297.368 41.32C297.901 33.4267 299.181 26.44 301.208 20.36C303.234 14.1733 306.328 9.32 310.488 5.79999C314.754 2.27999 320.301 0.519991 327.128 0.519991C332.994 0.519991 337.688 1.74666 341.208 4.19999C344.728 6.54666 347.181 9.47999 348.568 13C350.061 16.52 350.541 20.0933 350.008 23.72C349.474 27.24 348.034 30.3333 345.688 33C343.341 35.56 339.874 36.84 335.288 36.84C332.088 36.84 329.421 36.2 327.288 34.92C325.154 33.64 323.341 32.0933 321.848 30.28C320.461 28.36 319.234 26.5467 318.168 24.84C315.501 20.5733 312.781 19.1333 310.008 20.52C308.621 21.2667 307.874 22.4933 307.768 24.2C307.661 25.8 308.194 27.6667 309.368 29.8L312.888 35.88C314.701 38.8667 316.621 40.84 318.648 41.8C320.674 42.6533 323.234 42.8667 326.328 42.44L334.008 41.32C338.914 40.5733 342.914 41.9067 346.008 45.32C349.101 48.7333 350.648 52.9467 350.648 57.96C350.648 63.1867 349.048 67.4 345.848 70.6C342.754 73.6933 338.914 74.9733 334.328 74.44L327.608 73.64V110.12C327.608 114.387 326.221 117.96 323.448 120.84C320.674 123.613 316.941 125 312.248 125Z" fill="#43341A"/>
</svg>
